<svg width="16" height="16" viewBox="0 0 16 16" fill="none" xmlns="http://www.w3.org/2000/svg">
<g clip-path="url(#clip0_1_73)">
<path d="M14.2501 16C14.0201 16.0007 13.7924 15.9557 13.58 15.8677C13.3675 15.7798 13.1747 15.6505 13.0126 15.4875L10.9486 13.4235C10.3628 13.5528 9.75277 13.5174 9.18595 13.3213C8.61912 13.1251 8.11769 12.7758 7.73723 12.3121C7.35678 11.8484 7.11216 11.2883 7.03049 10.6941C6.94883 10.0999 7.0333 9.49465 7.27456 8.9455L7.56856 8.2755L9.64656 10.3535C9.74171 10.4444 9.86823 10.4951 9.99981 10.4951C10.1314 10.4951 10.2579 10.4444 10.3531 10.3535C10.3996 10.3071 10.4365 10.2521 10.4617 10.1914C10.4869 10.1308 10.4999 10.0658 10.4999 10.0001C10.5 9.93443 10.4871 9.8694 10.4619 9.80873C10.4368 9.74805 10.4 9.69292 10.3536 9.6465L8.27556 7.568L8.94556 7.274C9.49476 7.03289 10.1 6.94855 10.6942 7.03031C11.2884 7.11207 11.8484 7.35675 12.312 7.73722C12.7757 8.1177 13.125 8.61912 13.3212 9.18593C13.5174 9.75273 13.5528 10.3628 13.4236 10.9485L15.4876 13.0125C15.7323 13.2572 15.899 13.5691 15.9665 13.9086C16.0341 14.248 15.9994 14.5999 15.867 14.9197C15.7345 15.2395 15.5102 15.5128 15.2224 15.7051C14.9346 15.8974 14.5962 16 14.2501 16ZM11.2351 12.2955L13.7201 14.7805C13.8628 14.9168 14.0527 14.9929 14.2501 14.9929C14.4475 14.9929 14.6373 14.9168 14.7801 14.7805C14.8498 14.7109 14.9051 14.6283 14.9429 14.5373C14.9806 14.4463 15.0001 14.3488 15.0001 14.2502C15.0001 14.1517 14.9806 14.0542 14.9429 13.9632C14.9051 13.8722 14.8498 13.7896 14.7801 13.72L12.2956 11.235L12.3896 10.9435C12.4994 10.6059 12.5277 10.2472 12.4722 9.89653C12.4167 9.54592 12.279 9.21343 12.0703 8.92628C11.8615 8.63914 11.5878 8.4055 11.2714 8.2445C10.955 8.0835 10.605 7.99971 10.2501 8C10.2081 8 10.1664 8.00116 10.1251 8.0035L11.0611 8.9395C11.3423 9.22079 11.5002 9.60225 11.5002 10C11.5002 10.3977 11.3423 10.7792 11.0611 11.0605C10.7753 11.3333 10.3954 11.4856 10.0003 11.4856C9.60521 11.4856 9.22531 11.3333 8.93956 11.0605L8.00356 10.1245C8.00122 10.1662 8.00006 10.208 8.00006 10.25C7.99978 10.605 8.08358 10.9551 8.24461 11.2715C8.40563 11.588 8.6393 11.8618 8.92649 12.0705C9.21368 12.2793 9.54622 12.4171 9.8969 12.4726C10.2476 12.5281 10.6064 12.4998 10.9441 12.39L11.2351 12.2955Z" fill="black"/>
<path d="M12.5 2.5H11V2C10.9992 1.73503 10.8936 1.48113 10.7062 1.29377C10.5189 1.1064 10.265 1.00079 10 1H6C5.73503 1.00079 5.48113 1.1064 5.29377 1.29377C5.1064 1.48113 5.00079 1.73503 5 2V2.5H3.5C3.23503 2.50079 2.98113 2.6064 2.79377 2.79377C2.6064 2.98113 2.50079 3.23503 2.5 3.5V14C2.50079 14.265 2.6064 14.5189 2.79377 14.7062C2.98113 14.8936 3.23503 14.9992 3.5 15H7V14H3.5V3.5H5V5H11V3.5H12.5V6H13.5V3.5C13.4992 3.23503 13.3936 2.98113 13.2062 2.79377C13.0189 2.6064 12.765 2.50079 12.5 2.5ZM10 4H6V2H10V4Z" fill="black"/>
</g>
<defs>
<clipPath id="clip0_1_73">
<rect width="16" height="16" fill="white"/>
</clipPath>
</defs>
</svg>
