<svg width="16" height="16" viewBox="0 0 16 16" fill="none" xmlns="http://www.w3.org/2000/svg">
<g clip-path="url(#clip0_1_82)">
<path d="M8 2.33326C6.76232 2.33326 5.57534 2.82492 4.70017 3.70009C3.825 4.57526 3.33333 5.76225 3.33333 6.99992C3.33333 8.90792 4.52133 10.7486 5.82533 12.1746C6.49245 12.9007 7.21995 13.5688 8 14.1719C8.78003 13.5693 9.50753 12.9016 10.1747 12.1759C11.4787 10.7486 12.6667 8.90859 12.6667 6.99992C12.6667 5.76225 12.175 4.57526 11.2998 3.70009C10.4247 2.82492 9.23768 2.33326 8 2.33326ZM8 15.8093L7.622 15.5493L7.62 15.5479L7.616 15.5446L7.60267 15.5353L7.55267 15.4999C7.27662 15.2993 7.00672 15.0903 6.74333 14.8733C6.06825 14.3187 5.4327 13.7177 4.84133 13.0746C3.47867 11.5839 2 9.42459 2 6.99992C2 5.40863 2.63214 3.8825 3.75736 2.75728C4.88258 1.63206 6.4087 0.999924 8 0.999924C9.5913 0.999924 11.1174 1.63206 12.2426 2.75728C13.3679 3.8825 14 5.40863 14 6.99992C14 9.42459 12.5213 11.5846 11.1587 13.0746C10.3866 13.9144 9.53952 14.682 8.628 15.3679C8.55205 15.4247 8.47537 15.4805 8.398 15.5353L8.384 15.5446L8.38 15.5479L8.37867 15.5486L8 15.8086V15.8093ZM8 5.66659C7.64638 5.66659 7.30724 5.80707 7.05719 6.05712C6.80714 6.30716 6.66667 6.6463 6.66667 6.99992C6.66667 7.35355 6.80714 7.69268 7.05719 7.94273C7.30724 8.19278 7.64638 8.33326 8 8.33326C8.35362 8.33326 8.69276 8.19278 8.94281 7.94273C9.19286 7.69268 9.33333 7.35355 9.33333 6.99992C9.33333 6.6463 9.19286 6.30716 8.94281 6.05712C8.69276 5.80707 8.35362 5.66659 8 5.66659ZM5.33333 6.99992C5.33333 6.29268 5.61428 5.6144 6.11438 5.11431C6.61448 4.61421 7.29276 4.33326 8 4.33326C8.70724 4.33326 9.38552 4.61421 9.88562 5.11431C10.3857 5.6144 10.6667 6.29268 10.6667 6.99992C10.6667 7.70717 10.3857 8.38545 9.88562 8.88554C9.38552 9.38564 8.70724 9.66659 8 9.66659C7.29276 9.66659 6.61448 9.38564 6.11438 8.88554C5.61428 8.38545 5.33333 7.70717 5.33333 6.99992Z" fill="black"/>
</g>
<defs>
<clipPath id="clip0_1_82">
<rect width="16" height="16" fill="white"/>
</clipPath>
</defs>
</svg>
