<svg width="92" height="24" viewBox="0 0 92 24" fill="none" xmlns="http://www.w3.org/2000/svg">
<path d="M7 21C6.45 21 5.979 20.804 5.587 20.412C5.195 20.02 4.99933 19.5493 5 19V6H4V4H9V3H15V4H20V6H19V19C19 19.55 18.804 20.021 18.412 20.413C18.02 20.805 17.5493 21.0007 17 21H7ZM17 6H7V19H17V6ZM9 17H11V8H9V17ZM13 17H15V8H13V17Z" fill="#ED1C24"/>
<path d="M52 9C52 7.897 51.103 7 50 7H48.566L46.148 2.971C45.9698 2.67552 45.7185 2.43095 45.4183 2.26087C45.118 2.09079 44.779 2.00095 44.434 2H39V4H44.434L46.234 7H38C36.897 7 36 7.897 36 9V18C36 19.103 36.897 20 38 20H50C51.103 20 52 19.103 52 18V15L56 17V10L52 12V9ZM50.002 18H38V9H50L50.001 13L50 14L50.001 14.001L50.002 18Z" fill="#2F2F2F"/>
<path d="M40 14H46V16H40V14Z" fill="#2F2F2F"/>
<path d="M87 3H73C71.9 3 71 3.9 71 5V19C71 20.1 71.9 21 73 21H87C88.1 21 89 20.1 89 19V5C89 3.9 88.1 3 87 3ZM77 17H75V10H77V17ZM81 17H79V7H81V17ZM85 17H83V13H85V17Z" fill="#2F2F2F"/>
</svg>
