<svg width="123" height="32" viewBox="0 0 123 32" fill="none" xmlns="http://www.w3.org/2000/svg">
<path d="M34.5 11H33.5C32.9696 11 32.4609 11.2107 32.0858 11.5858C31.7107 11.9609 31.5 12.4696 31.5 13V22C31.5 22.5304 31.7107 23.0391 32.0858 23.4142C32.4609 23.7893 32.9696 24 33.5 24H42.5C43.0304 24 43.5391 23.7893 43.9142 23.4142C44.2893 23.0391 44.5 22.5304 44.5 22V21" stroke="#222222" stroke-width="2" stroke-linecap="round" stroke-linejoin="round"/>
<path d="M43.5 9L46.5 12M47.885 10.585C48.2788 10.1912 48.5001 9.65698 48.5001 9.1C48.5001 8.54302 48.2788 8.00885 47.885 7.615C47.4912 7.22115 46.957 6.99989 46.4 6.99989C45.843 6.99989 45.3088 7.22115 44.915 7.615L36.5 16V19H39.5L47.885 10.585Z" stroke="#222222" stroke-width="2" stroke-linecap="round" stroke-linejoin="round"/>
<path d="M72.5 25C71.95 25 71.479 24.804 71.087 24.412C70.695 24.02 70.4993 23.5493 70.5 23V10H69.5V8H74.5V7H80.5V8H85.5V10H84.5V23C84.5 23.55 84.304 24.021 83.912 24.413C83.52 24.805 83.0493 25.0007 82.5 25H72.5ZM82.5 10H72.5V23H82.5V10ZM74.5 21H76.5V12H74.5V21ZM78.5 21H80.5V12H78.5V21Z" fill="#ED1C24"/>
</svg>
