<svg width="16" height="16" viewBox="0 0 16 16" fill="none" xmlns="http://www.w3.org/2000/svg">
<path d="M5.085 2C5.18844 1.70742 5.38008 1.45413 5.63351 1.27503C5.88694 1.09593 6.18967 0.999838 6.5 1H9.5C9.81033 0.999838 10.1131 1.09593 10.3665 1.27503C10.6199 1.45413 10.8116 1.70742 10.915 2H11.5C11.8978 2 12.2794 2.15804 12.5607 2.43934C12.842 2.72064 13 3.10218 13 3.5V5.6C12.6804 5.43647 12.3454 5.30483 12 5.207V3.5C12 3.36739 11.9473 3.24022 11.8536 3.14645C11.7598 3.05268 11.6326 3 11.5 3H10.915C10.8116 3.29258 10.6199 3.54587 10.3665 3.72497C10.1131 3.90407 9.81033 4.00016 9.5 4H6.5C6.18967 4.00016 5.88694 3.90407 5.63351 3.72497C5.38008 3.54587 5.18844 3.29258 5.085 3H4.5C4.36739 3 4.24021 3.05268 4.14645 3.14645C4.05268 3.24022 4 3.36739 4 3.5V13.5C4 13.6326 4.05268 13.7598 4.14645 13.8536C4.24021 13.9473 4.36739 14 4.5 14H6.257C6.571 14.38 6.934 14.716 7.337 15H4.5C4.10218 15 3.72064 14.842 3.43934 14.5607C3.15804 14.2794 3 13.8978 3 13.5V3.5C3 3.10218 3.15804 2.72064 3.43934 2.43934C3.72064 2.15804 4.10218 2 4.5 2H5.085ZM6.5 2C6.36739 2 6.24021 2.05268 6.14645 2.14645C6.05268 2.24022 6 2.36739 6 2.5C6 2.63261 6.05268 2.75979 6.14645 2.85355C6.24021 2.94732 6.36739 3 6.5 3H9.5C9.63261 3 9.75979 2.94732 9.85355 2.85355C9.94732 2.75979 10 2.63261 10 2.5C10 2.36739 9.94732 2.24022 9.85355 2.14645C9.75979 2.05268 9.63261 2 9.5 2H6.5ZM15 10.5C15 11.0909 14.8836 11.6761 14.6575 12.2221C14.4313 12.768 14.0998 13.2641 13.682 13.682C13.2641 14.0998 12.768 14.4313 12.2221 14.6575C11.6761 14.8836 11.0909 15 10.5 15C9.90905 15 9.32389 14.8836 8.77792 14.6575C8.23196 14.4313 7.73588 14.0998 7.31802 13.682C6.90016 13.2641 6.56869 12.768 6.34254 12.2221C6.1164 11.6761 6 11.0909 6 10.5C6 9.30653 6.47411 8.16193 7.31802 7.31802C8.16193 6.47411 9.30653 6 10.5 6C11.6935 6 12.8381 6.47411 13.682 7.31802C14.5259 8.16193 15 9.30653 15 10.5ZM10.5 8C10.3674 8 10.2402 8.05268 10.1464 8.14645C10.0527 8.24021 10 8.36739 10 8.5V10.5C10 10.6326 10.0527 10.7598 10.1464 10.8536C10.2402 10.9473 10.3674 11 10.5 11C10.6326 11 10.7598 10.9473 10.8536 10.8536C10.9473 10.7598 11 10.6326 11 10.5V8.5C11 8.36739 10.9473 8.24021 10.8536 8.14645C10.7598 8.05268 10.6326 8 10.5 8ZM10.5 13.125C10.6658 13.125 10.8247 13.0592 10.9419 12.9419C11.0592 12.8247 11.125 12.6658 11.125 12.5C11.125 12.3342 11.0592 12.1753 10.9419 12.0581C10.8247 11.9408 10.6658 11.875 10.5 11.875C10.3342 11.875 10.1753 11.9408 10.0581 12.0581C9.94085 12.1753 9.875 12.3342 9.875 12.5C9.875 12.6658 9.94085 12.8247 10.0581 12.9419C10.1753 13.0592 10.3342 13.125 10.5 13.125Z" fill="black"/>
</svg>
